<?xml version="1.0" standalone="no"?>
<!DOCTYPE svg PUBLIC "-//W3C//DTD SVG 20010904//EN"
 "http://www.w3.org/TR/2001/REC-SVG-20010904/DTD/svg10.dtd">
<svg version="1.0" xmlns="http://www.w3.org/2000/svg"
 width="260.000000pt" height="260.000000pt" viewBox="0 0 260.000000 260.000000"
 preserveAspectRatio="xMidYMid meet">
<metadata>
Created by potrace 1.11, written by Peter Selinger 2001-2013
</metadata>
<g transform="translate(0.000000,260.000000) scale(0.100000,-0.100000)"
fill="#000000" stroke="none">
<path d="M0 1300 l0 -1300 1300 0 1300 0 0 1300 0 1300 -1300 0 -1300 0 0
-1300z m2520 0 l0 -1220 -1220 0 -1220 0 0 1220 0 1220 1220 0 1220 0 0 -1220z"/>
<path d="M958 1971 l4 -179 -77 -7 c-42 -4 -126 -4 -186 0 l-109 7 0 -62 0
-62 185 4 185 3 0 -175 0 -176 -77 -38 c-148 -72 -273 -180 -313 -269 -43 -93
-17 -203 63 -273 58 -50 172 -103 252 -117 79 -14 136 2 169 46 20 27 21 44
26 299 l5 271 45 13 c137 42 186 49 340 49 180 0 233 -15 314 -87 86 -75 115
-178 82 -292 -40 -138 -204 -215 -326 -153 -71 35 -94 86 -98 218 l-4 106 -57
-23 -56 -23 1 -93 c2 -150 51 -244 157 -300 35 -19 58 -23 142 -23 91 0 106 3
165 31 170 82 257 275 204 455 -52 178 -209 283 -454 304 -109 9 -347 -23
-442 -60 -17 -7 -18 5 -18 158 l0 164 58 6 c31 3 119 18 195 33 l137 26 0 33
c0 18 -3 46 -6 63 l-6 30 -38 -13 c-39 -14 -210 -49 -293 -61 l-49 -7 4 177 3
176 -65 0 -65 0 3 -179z m-10 -1208 c-30 -37 -190 17 -247 83 -41 46 -41 94
-3 155 33 51 78 89 183 154 l74 46 3 -212 c2 -157 -1 -215 -10 -226z"/>
<path d="M1665 1959 c-22 -16 -40 -34 -40 -39 0 -5 25 -27 55 -50 67 -49 218
-198 268 -262 20 -27 41 -48 47 -48 5 1 29 18 52 39 l43 38 -63 74 c-35 41
-90 98 -123 128 -63 57 -183 151 -193 151 -3 0 -24 -14 -46 -31z"/>
</g>
</svg>
